<svg xmlns="http://www.w3.org/2000/svg" viewBox="0 0 512 512" width="512" height="512">
  <rect width="512" height="512" rx="100" fill="white"/>
  <g transform="translate(64, 64) scale(16)" stroke="#a855f7" stroke-width="1.5" fill="none" stroke-linecap="round" stroke-linejoin="round">
    <path d="M12 5a3 3 0 1 0-5.997.125 4 4 0 0 0-2.526 5.77 4 4 0 0 0 .52 5.586 3.5 3.5 0 0 0 5.13 4.482"/>
    <path d="M12 5a3 3 0 1 1 5.997.125 4 4 0 0 1 2.526 5.77 4 4 0 0 1-.52 5.586 3.5 3.5 0 0 1-5.13 4.482"/>
    <path d="M12 19V5"/>
  </g>
</svg>
